# xmcd
#
# Track frame offsets: 
#        150
#        19095
#        70048
#        87849
#        121261
#        146732
#        163698
#        184297
#        222621
#
# Disc length: 3858 seconds
#
# Revision: 0
# Processed by: cddbd v1.5.2PL0 Copyright (c) Steve Scherf et al.
# Submitted via: ExactAudioCopy v0.99pb4
#
DISCID=810f1009
DTITLE=李孔元古琴演奏集 -  石上流泉
DYEAR=2000
DGENRE=古琴
TTITLE0=石上流泉 - 清《琴学入门》　清琴“海天秋”
TTITLE1=龙朔操 - 明《神奇秘谱》　无名明琴
TTITLE2=酒狂 - 明《神奇秘谱》　无名明琴
TTITLE3=无射调汉宫秋 - 明《西'堂琴统》　无名明琴
TTITLE4=梧叶舞秋风 - 明《琴学心声谐谱》　清琴“海天秋”
TTITLE5=黄云秋塞 - 明《神奇秘谱》　无名明琴
TTITLE6=春晓吟(琴箫合奏) - 清《大还阁琴谱》　无名明琴
TTITLE7=平沙落雁(琴箫合奏) - 民《琴学丛书》　无名明琴
TTITLE8=渔歌 - 清《自远堂琴谱》　无名元琴
EXTD=癸巳暮春，村民分享
EXTT0=
EXTT1=
EXTT2=
EXTT3=
EXTT4=
EXTT5=
EXTT6=
EXTT7=
EXTT8=
PLAYORDER=
